<svg width="15" height="20" viewBox="0 0 15 20" fill="none" xmlns="http://www.w3.org/2000/svg">
<path d="M14.124 9.7266C13.9197 9.24172 13.6879 8.6916 13.4615 8.0127C12.869 6.23655 14.7623 4.29855 14.7803 4.28025L13.7198 3.21975C13.6142 3.3252 11.1522 5.82787 12.0385 8.4873C12.2831 9.2208 12.527 9.79905 12.742 10.3098C13.2424 11.2987 13.5021 12.3917 13.5 13.5C13.4121 14.3933 13.0692 15.2425 12.5122 15.9464C11.9551 16.6502 11.2074 17.179 10.3581 17.4697C10.6264 16.418 10.6223 15.3152 10.3462 14.2654C10.0701 13.2156 9.53121 12.2535 8.78025 11.4697L7.99695 10.6864L7.56083 11.7045C6.18368 14.9175 4.545 16.32 3.58103 16.905C2.98942 16.5427 2.49228 16.045 2.1305 15.4531C1.76872 14.8611 1.55263 14.1918 1.5 13.5C1.55167 12.5559 1.78833 11.6312 2.19653 10.7783C2.68082 9.75025 2.95403 8.6355 3 7.5V6.16628C3.65513 6.43628 4.5 7.14405 4.5 9V10.9526L5.8074 9.50205C8.14125 6.9111 7.6542 3.8262 6.7119 1.77097C7.42846 2.00986 8.04379 2.48291 8.45883 3.11398C8.87388 3.74505 9.0645 4.49743 9 5.25H10.5C10.5 1.09718 7.06605 0 5.25 0H3.75L4.6494 1.19895C4.75268 1.33815 6.7965 4.1448 5.66453 6.96495C5.41268 6.25618 4.95116 5.64079 4.34129 5.20051C3.73141 4.76024 3.00202 4.51592 2.25 4.5H1.5V7.5C1.44833 8.44409 1.21167 9.36883 0.803475 10.2217C0.319183 11.2497 0.0459713 12.3645 0 13.5C0 16.3858 2.8674 19.5 7.5 19.5C12.1326 19.5 15 16.3858 15 13.5C15.0011 12.1917 14.7014 10.9006 14.124 9.7266ZM5.1264 17.6448C6.50983 16.4994 7.62733 15.0665 8.40128 13.4458C8.81468 14.1132 9.04955 14.8756 9.08335 15.6599C9.11714 16.4443 8.94872 17.2241 8.59425 17.9246C8.23151 17.9733 7.866 17.9985 7.5 18C6.69515 18.0056 5.89434 17.8858 5.1264 17.6448Z" fill="#E00000"/>
</svg>
